<svg xmlns="http://www.w3.org/2000/svg" version="1.1" xmlns:xlink="http://www.w3.org/1999/xlink" xmlns:svgjs="http://svgjs.dev/svgjs" width="1000" height="1000"><g clip-path="url(#SvgjsClipPath1144)"><rect width="1000" height="1000" fill="#ffffff"></rect><g transform="matrix(0.7407407407407407,0,0,0.7407407407407407,100,100)"><svg xmlns="http://www.w3.org/2000/svg" version="1.1" xmlns:xlink="http://www.w3.org/1999/xlink" xmlns:svgjs="http://svgjs.dev/svgjs" width="1080" height="1080"><svg id="Layer_1" xmlns="http://www.w3.org/2000/svg" version="1.1" viewBox="0 0 1080 1080">
  <!-- Generator: Adobe Illustrator 29.4.0, SVG Export Plug-In . SVG Version: 2.1.0 Build 152)  -->
  <path d="M120.92,324.14h113.48v431.73h-113.48v-431.73Z"></path>
  <path d="M272.95,514.1h329.96v102.38h-329.96v-102.38Z"></path>
  <path d="M750.62,735.82c-35.77-19.52-64.05-46.46-84.8-80.79-20.77-34.33-31.15-72.47-31.15-114.41s10.38-80.58,31.15-114.72c20.76-34.12,49.03-61.15,84.8-81.1,35.77-19.94,75.65-29.91,119.65-29.91,17.27,0,33.61,1.54,49.03,4.63,15.42,3.08,28.68,7.51,39.78,13.26v98.06c-9.46-6.17-20.66-11-33.61-14.49-12.95-3.49-26.63-5.24-41.01-5.24-25.08,0-47.7,5.55-67.84,16.65-20.15,11.1-35.98,26.42-47.49,45.95-11.52,19.53-17.27,41.63-17.27,66.3s5.75,47.39,17.27,66.92c11.51,19.53,27.34,34.75,47.49,45.64,20.14,10.9,42.76,16.34,67.84,16.34,14.39,0,28.06-1.74,41.01-5.24,12.95-3.49,24.15-8.53,33.61-15.11v98.68c-10.7,5.76-23.65,10.18-38.86,13.26-15.22,3.08-31.87,4.63-49.96,4.63-44,0-83.88-9.76-119.65-29.3Z"></path>
</svg></svg></g></g><defs><clipPath id="SvgjsClipPath1144"><rect width="1000" height="1000" x="0" y="0" rx="0" ry="0"></rect></clipPath></defs></svg>